# xmcd
#
# Track frame offsets: 
#        150
#        19805
#        50129
#        87271
#        96826
#        123555
#        149357
#        173605
#        191523
#        204697
#        222337
#        243192
#        265046
#        278598
#
# Disc length: 4190 seconds
#
# Revision: 3
# Processed by: cddbd v1.5.2PL0 Copyright (c) Steve Scherf et al.
# Submitted via: ExactAudioCopy v1.3
#
DISCID=ca105c0e
DTITLE=Various Artist - !JAZZ HEAR AND N•W
DYEAR=2003
DGENRE=Jazz
TTITLE0=Diana Krall - Let's Fall in Love
TTITLE1=Joshua Redman - Jazz Crimes
TTITLE2=Hancock, Brecker and Hargrove - Misstery
TTITLE3=Harry Connick, Jr. - Ding-Dong!
TTITLE4=Dave Holland - Not for Nothin'
TTITLE5=Brad Mehldau - Dusty McNugget
TTITLE6=Ramsey Lewis and Nancy Wilson - Moondance
TTITLE7=Bil Charlap - Skylark
TTITLE8=Tony Bennett - Steppin' out With My Baby
TTITLE9=Joe Lovano - Aisha
TTITLE10=Dave Douglas - Crazy Crimes
TTITLE11=Jane Monheit - Cheek to Cheek
TTITLE12=Kenny Werner - America
TTITLE13=Cassandra Wilson, Regina Carter, and Béla Fleck - This Land i
TTITLE13=s Our Land
EXTD=YEAR: 2003
EXTT0=
EXTT1=
EXTT2=
EXTT3=
EXTT4=
EXTT5=
EXTT6=
EXTT7=
EXTT8=
EXTT9=
EXTT10=
EXTT11=
EXTT12=
EXTT13=
PLAYORDER=
